<svg xmlns="http://www.w3.org/2000/svg" width="20" height="20" viewBox="0 0 20 20">
  <g id="Account_icon" data-name="Account icon" transform="translate(-2)">
    <path id="Path_584" data-name="Path 584" d="M0,0H20V20H0Z" transform="translate(2)" fill="none"/>
    <path id="Path_585" data-name="Path 585" d="M12,2A10,10,0,1,0,22,12,10,10,0,0,0,12,2Zm0,3A3,3,0,1,1,9,8,3,3,0,0,1,12,5Zm0,14.2a7.2,7.2,0,0,1-6-3.22c.03-1.99,4-3.08,6-3.08s5.97,1.09,6,3.08A7.2,7.2,0,0,1,12,19.2Z" transform="translate(0 -2)" fill="#5b6683"/>
  </g>
</svg>
